<svg xmlns="http://www.w3.org/2000/svg" xmlns:xlink="http://www.w3.org/1999/xlink" width="23" height="19" viewBox="0 0 23 19"><defs><path id="ukb5a" d="M496.75 2927.74c0 .65-.2 1.28-.62 1.88-.4.6-.92 1.1-1.53 1.52a10116.6 10116.6 0 0 0-7.74 5.3c-.25.15-.5.26-.72.33-.23.08-.43.12-.63.12h-.02c-.2 0-.4-.04-.63-.12a3.82 3.82 0 0 1-.72-.33 13.05 13.05 0 0 1-1.33-.88l-.54-.38a622.47 622.47 0 0 0-5.86-4.04 6.2 6.2 0 0 1-1.47-1.43c-.46-.61-.69-1.18-.69-1.7 0-.64.17-1.18.52-1.61a1.8 1.8 0 0 1 1.49-.65h18.48c.55 0 1.02.2 1.41.58.4.4.6.86.6 1.4zm0 3.65v9.87c0 .55-.2 1.02-.59 1.4-.4.4-.87.59-1.42.59h-18.48c-.55 0-1.03-.2-1.42-.58a1.9 1.9 0 0 1-.59-1.4v-9.88c.37.4.8.77 1.27 1.08a251.4 251.4 0 0 1 7.4 5.1c.3.2.7.4 1.19.6.49.2.95.3 1.38.3h.02c.43 0 .89-.1 1.38-.3.5-.2.9-.4 1.19-.6.3-.19.68-.46 1.16-.8a261.8 261.8 0 0 1 6.25-4.3c.48-.32.9-.68 1.26-1.08z"/></defs><g><g transform="translate(-474 -2925)"><use fill="#fff" xlink:href="#ukb5a"/></g></g></svg>