<svg xmlns="http://www.w3.org/2000/svg" xmlns:xlink="http://www.w3.org/1999/xlink" width="12" height="12" viewBox="0 0 12 12"><defs><path id="q0f4a" d="M55.93 2246.8l-5.45 10.9a.5.5 0 0 1-.49.3c-.02 0-.07 0-.12-.02a.54.54 0 0 1-.42-.53v-4.9h-4.9a.54.54 0 0 1-.53-.42.55.55 0 0 1 .03-.36c.05-.11.13-.2.25-.26l10.9-5.45a.51.51 0 0 1 .24-.06.5.5 0 0 1 .39.16.5.5 0 0 1 .16.3c.02.11 0 .22-.06.33z"/></defs><g><g transform="translate(-44 -2246)"><g><g><use fill="#002496" xlink:href="#q0f4a"/></g></g></g></g></svg>