<svg xmlns="http://www.w3.org/2000/svg" xmlns:xlink="http://www.w3.org/1999/xlink" width="28" height="28" viewBox="0 0 28 28"><defs><path id="lti8a" d="M163.5 56.42a2 2 0 0 1-.62 1.46 2 2 0 0 1-1.46.62c-.58 0-1.07-.2-1.46-.62l-5.56-5.55a11.11 11.11 0 0 1-6.48 2.02 11.42 11.42 0 0 1-8.09-3.33 11.42 11.42 0 0 1-3.33-8.1 11.42 11.42 0 0 1 3.33-8.09 11.42 11.42 0 0 1 8.1-3.33 11.42 11.42 0 0 1 8.09 3.33 11.42 11.42 0 0 1 3.33 8.1c0 2.37-.67 4.53-2.02 6.47l5.57 5.56c.4.4.6.89.6 1.46zm-8.3-13.5a7 7 0 0 0-2.14-5.13 7 7 0 0 0-5.14-2.14 7 7 0 0 0-5.13 2.14 7 7 0 0 0-2.14 5.13 7 7 0 0 0 2.14 5.14 7 7 0 0 0 5.13 2.13 7 7 0 0 0 5.14-2.13 7 7 0 0 0 2.13-5.14z"/></defs><g><g transform="translate(-136 -31)"><g><use fill="#002496" xlink:href="#lti8a"/></g></g></g></svg>