<svg xmlns="http://www.w3.org/2000/svg" xmlns:xlink="http://www.w3.org/1999/xlink" width="28" height="40" viewBox="0 0 28 40"><defs><path id="ihroa" d="M953 2373.17a5.8 5.8 0 0 1-5.77-5.84 5.8 5.8 0 0 1 5.77-5.83 5.8 5.8 0 0 1 5.76 5.83 5.8 5.8 0 0 1-5.76 5.84zm0-19.17a13.27 13.27 0 0 0-13.18 13.33c0 7.08 11.98 25.52 12.49 26.3a.83.83 0 0 0 1.37 0c.51-.79 12.5-19.22 12.5-26.3 0-7.35-5.92-13.33-13.18-13.33z"/></defs><g><g transform="translate(-939 -2354)"><use fill="#002496" xlink:href="#ihroa"/></g></g></svg>