<svg xmlns="http://www.w3.org/2000/svg" xmlns:xlink="http://www.w3.org/1999/xlink" width="25" height="25" viewBox="0 0 25 25"><defs><path id="nqqwa" d="M308 2941.74c0 .32-.06.74-.18 1.26-.12.51-.24.92-.37 1.21-.25.6-.97 1.22-2.17 1.88a6.88 6.88 0 0 1-4.24.85 15.23 15.23 0 0 1-2.84-.84l-.87-.33c-1.16-.4-2.2-.9-3.1-1.47a26.76 26.76 0 0 1-4.7-3.83 26.76 26.76 0 0 1-3.83-4.7 16.08 16.08 0 0 1-1.47-3.1l-.32-.87-.37-.98a15.23 15.23 0 0 1-.48-1.86 6.88 6.88 0 0 1 .84-4.24c.67-1.2 1.3-1.92 1.89-2.17.3-.13.7-.25 1.21-.37.52-.12.94-.18 1.26-.18a1 1 0 0 1 .37.05c.21.07.53.52.94 1.35l.53.96a91.03 91.03 0 0 0 1.17 2.08l.31.44c.18.25.3.46.39.63.08.17.12.34.12.5 0 .25-.17.54-.5.9-.34.35-.7.68-1.1.97-.4.3-.77.61-1.1.94-.34.34-.51.6-.51.82 0 .1.03.24.09.4a3.88 3.88 0 0 0 .4.8l.2.33c.9 1.62 1.93 3.01 3.09 4.17a18.64 18.64 0 0 0 4.5 3.3l.44.24c.08.04.2.1.36.15.16.06.3.1.4.1.21 0 .48-.18.82-.51.33-.34.64-.7.94-1.1.3-.4.62-.77.97-1.1.36-.34.65-.51.9-.51.16 0 .33.04.5.12a22.4 22.4 0 0 1 1.07.7 38.1 38.1 0 0 0 2.08 1.17l.96.53c.83.41 1.28.73 1.35.94a1 1 0 0 1 .05.37z"/></defs><g><g transform="translate(-283 -2922)"><use fill="#fff" xlink:href="#nqqwa"/></g></g></svg>