<svg xmlns="http://www.w3.org/2000/svg" xmlns:xlink="http://www.w3.org/1999/xlink" width="20" height="20" viewBox="0 0 20 20"><defs><path id="3ho5a" d="M155 927.8a5.64 5.64 0 0 1-.44 1.97c-.2.47-.78.98-1.73 1.5a5.5 5.5 0 0 1-4.88.3 55.97 55.97 0 0 1-1.49-.55c-.92-.33-1.75-.72-2.48-1.18a21.41 21.41 0 0 1-3.75-3.07 21.41 21.41 0 0 1-3.07-3.75c-.46-.73-.85-1.56-1.18-2.48a30.24 30.24 0 0 0-.55-1.49 12.18 12.18 0 0 1-.38-1.48 5.5 5.5 0 0 1 .67-3.4c.53-.95 1.04-1.53 1.51-1.73a5.64 5.64 0 0 1 2.27-.4c.17.06.42.42.76 1.08l.42.77a72.82 72.82 0 0 0 .94 1.66 17.9 17.9 0 0 1 .55.86c.07.14.1.27.1.4 0 .2-.13.43-.4.72-.27.28-.57.54-.88.78-.32.23-.61.48-.88.75-.27.26-.4.48-.4.65 0 .09.02.2.06.32a3.1 3.1 0 0 0 .32.63l.17.27c.72 1.3 1.54 2.41 2.47 3.34a14.91 14.91 0 0 0 3.6 2.64 5.18 5.18 0 0 0 .64.32c.13.04.23.07.32.07.17 0 .39-.14.65-.4.27-.28.52-.57.75-.89.24-.31.5-.6.78-.88.29-.27.53-.4.71-.4.14 0 .27.03.4.1.15.06.31.16.51.3l.36.25a30.48 30.48 0 0 0 1.66.94l.77.42c.66.34 1.02.59 1.08.76a.8.8 0 0 1 .04.3z"/></defs><g><g transform="translate(-135 -912)"><use fill="#012396" xlink:href="#3ho5a"/></g></g></svg>