<svg xmlns="http://www.w3.org/2000/svg" xmlns:xlink="http://www.w3.org/1999/xlink" width="14" height="21" viewBox="0 0 14 21"><defs><path id="2ccia" d="M471 2239.14a2.9 2.9 0 0 1-2.88-2.91 2.9 2.9 0 0 1 2.88-2.92 2.9 2.9 0 0 1 2.88 2.92 2.9 2.9 0 0 1-2.88 2.91zm0-9.58a6.64 6.64 0 0 0-6.59 6.67c0 3.53 5.99 12.75 6.24 13.14a.41.41 0 0 0 .69 0c.26-.39 6.25-9.6 6.25-13.14a6.64 6.64 0 0 0-6.6-6.67z"/></defs><g><g transform="translate(-464 -2229)"><use fill="#002496" xlink:href="#2ccia"/></g></g></svg>