<svg xmlns="http://www.w3.org/2000/svg" xmlns:xlink="http://www.w3.org/1999/xlink" width="20" height="19" viewBox="0 0 20 19"><defs><path id="z5nya" d="M1157.5 4993.48v6.77h-4.02v-6.32c0-.83-.16-1.49-.5-1.96-.32-.47-.83-.7-1.53-.7a2 2 0 0 0-1.3.4c-.34.28-.6.62-.77 1.02-.09.24-.13.56-.13.97v6.59h-4.02a1568.28 1568.28 0 0 0 .01-11.24v-.57h4v1.68a5.13 5.13 0 0 1 1.17-1.25c.3-.23.65-.4 1.07-.52.41-.13.88-.19 1.4-.19 1.39 0 2.5.45 3.35 1.36.85.9 1.27 2.22 1.27 3.96zm-14.23-8.7c0 .59-.2 1.07-.62 1.46-.42.4-.97.59-1.65.59h-.03c-.67 0-1.2-.2-1.61-.59-.4-.39-.61-.87-.61-1.45 0-.59.21-1.08.63-1.46.42-.39.97-.58 1.64-.58.68 0 1.22.2 1.62.58.41.38.62.87.63 1.46zm-.26 3.66v11.81h-4.03v-11.81z"/></defs><g><g transform="translate(-1138 -4982)"><g><use fill="#002496" xlink:href="#z5nya"/></g></g></g></svg>