<svg xmlns="http://www.w3.org/2000/svg" xmlns:xlink="http://www.w3.org/1999/xlink" width="20" height="17" viewBox="0 0 20 17"><defs><path id="475xa" d="M1157.5 4899.93a8.6 8.6 0 0 1-2.06 2.12l.02.53a11.65 11.65 0 0 1-1.95 6.45c-.66 1-1.44 1.9-2.34 2.67-.9.78-2 1.4-3.28 1.86a11.98 11.98 0 0 1-10.39-1.15 8.02 8.02 0 0 0 6.08-1.7 4 4 0 0 1-2.39-.82 4.01 4.01 0 0 1-1.44-2.03 4.24 4.24 0 0 0 1.85-.08 4.03 4.03 0 0 1-2.36-1.4 3.96 3.96 0 0 1-.93-2.62v-.05c.58.32 1.2.5 1.85.52a4.1 4.1 0 0 1-1.26-5.48 11.62 11.62 0 0 0 8.45 4.29c-.07-.32-.1-.63-.1-.94 0-1.13.4-2.1 1.2-2.9.8-.8 1.76-1.2 2.9-1.2 1.18 0 2.18.43 2.99 1.3.92-.18 1.79-.51 2.6-1a3.98 3.98 0 0 1-1.8 2.26c.79-.08 1.57-.3 2.36-.63z"/></defs><g><g transform="translate(-1138 -4898)"><g><use fill="#002496" xlink:href="#475xa"/></g></g></g></svg>