<svg xmlns="http://www.w3.org/2000/svg" xmlns:xlink="http://www.w3.org/1999/xlink" width="20" height="23" viewBox="0 0 20 23"><defs><path id="ot08a" d="M1153.8 4939.4v6.26h-1.16v-.69c-.45.52-.88.78-1.3.78-.39 0-.64-.15-.75-.46a3.2 3.2 0 0 1-.1-.95v-4.94h1.15v4.6l.01.44c.03.19.12.28.27.28.23 0 .47-.18.72-.54v-4.78zm-4.25 2.03v2.2c0 .68-.11 1.17-.35 1.48-.32.43-.77.64-1.34.64-.57 0-1-.21-1.33-.64-.24-.32-.35-.81-.35-1.48v-2.2c0-.67.11-1.16.35-1.47.32-.42.76-.64 1.33-.64.57 0 1.02.22 1.34.64.24.31.35.8.35 1.47zm-4.68-4.18h1.3l-1.54 5.01v3.4h-1.26v-3.4c-.12-.62-.38-1.5-.77-2.66-.32-.86-.59-1.65-.83-2.35h1.34l.9 3.3zm12.63 16.02c0 1.96-.11 3.42-.33 4.4a2.38 2.38 0 0 1-2.02 1.82c-1.56.17-3.9.26-7.03.26-3.12 0-5.46-.09-7.02-.26a2.25 2.25 0 0 1-1.3-.58 2.3 2.3 0 0 1-.72-1.24c-.22-.94-.33-2.4-.33-4.4 0-1.96.11-3.42.33-4.4a2.38 2.38 0 0 1 2.04-1.83c1.54-.16 3.88-.25 7-.25 3.13 0 5.47.09 7.03.25.49.06.92.26 1.3.6.37.33.61.74.72 1.24.22.93.33 2.4.33 4.4zm-9.1-9.43v-2.63c0-.58-.18-.87-.54-.87-.36 0-.54.29-.54.87v2.63c0 .59.18.88.54.88.36 0 .54-.3.54-.88zm7.7 11.47v-.17h-1.15c0 .43 0 .68-.02.77-.06.3-.23.45-.51.45-.39 0-.58-.29-.58-.87v-1.09h2.27v-1.3c0-.65-.12-1.14-.34-1.45a1.61 1.61 0 0 0-1.35-.64c-.58 0-1.03.21-1.36.64-.24.31-.36.8-.36 1.46v2.17c0 .66.13 1.15.37 1.46.33.42.8.64 1.37.64.61 0 1.07-.22 1.38-.67.15-.22.24-.45.26-.68.02-.07.03-.31.03-.72zm-4.27.12v-2.47c0-.61-.04-1.03-.11-1.25-.15-.46-.45-.7-.9-.7-.43 0-.82.23-1.19.68v-2.73h-1.13v8.33h1.13v-.6c.39.46.78.69 1.19.69.45 0 .75-.23.9-.7.07-.22.11-.64.11-1.25zm-5.44 1.86h1.13v-6.2h-1.13v4.74c-.25.35-.5.53-.72.53-.15 0-.24-.09-.27-.26V4951.09h-1.13v4.9c0 .42.03.72.1.92.1.31.34.47.73.47.4 0 .84-.26 1.3-.77zm-3.64-7.15h1.35v-1.18h-3.95v1.18h1.33v7.15h1.27zm12.23 2.74v.58h-1.15v-.58c0-.57.2-.85.58-.85.38 0 .57.28.57.85zm-4.29-.01v2.65c0 .56-.16.84-.49.84-.2 0-.38-.1-.57-.28v-3.78c.19-.18.38-.27.57-.27.33 0 .5.28.5.84z"/></defs><g><g transform="translate(-1138 -4937)"><g><use fill="#002496" xlink:href="#ot08a"/></g></g></g></svg>