<svg xmlns="http://www.w3.org/2000/svg" xmlns:xlink="http://www.w3.org/1999/xlink" width="20" height="20" viewBox="0 0 20 20"><defs><path id="4f6pa" d="M1305 51.1c0 .44-.16.82-.47 1.14l-2.3 2.29c-.3.31-.69.47-1.14.47-.44 0-.83-.16-1.14-.47l-4.95-4.95-4.95 4.95c-.31.31-.7.47-1.14.47-.45 0-.83-.16-1.15-.47l-2.29-2.3c-.31-.3-.47-.69-.47-1.14 0-.44.16-.83.47-1.14l4.95-4.95-4.95-4.95c-.31-.31-.47-.7-.47-1.14 0-.45.16-.83.47-1.15l2.3-2.29c.3-.31.69-.47 1.14-.47.44 0 .83.16 1.14.47l4.95 4.95 4.95-4.95c.31-.31.7-.47 1.14-.47.45 0 .83.16 1.15.47l2.29 2.3c.31.3.47.69.47 1.14 0 .44-.16.83-.47 1.14l-4.95 4.95 4.95 4.95c.31.31.47.7.47 1.14z"/></defs><g><g transform="translate(-1285 -35)"><g><use fill="#002496" xlink:href="#4f6pa"/></g></g></g></svg>