<svg xmlns="http://www.w3.org/2000/svg" xmlns:xlink="http://www.w3.org/1999/xlink" width="94" height="60" viewBox="0 0 94 60"><defs><path id="4qafa" d="M160.37 43.55h-14.29c-1.01 0-1.84.82-1.84 1.83v3.67h16.13c1.01 0 1.84-.82 1.84-1.83v-3.67z"/><path id="4qafb" d="M159.78 53.49l-13.8-3.68c-.98-.26-2 .32-2.26 1.3l-.47 1.77-.48 1.77 1.78.47 13.8 3.68c.97.26 2-.32 2.25-1.3l.48-1.77.48-1.77z"/><path id="4qafc" d="M156.62 62.94l-12.37-7.1c-.88-.51-2.01-.2-2.52.66l-.92 1.6-.92 1.58 1.6.92 12.37 7.1c.87.5 2 .2 2.51-.67l.92-1.59.92-1.58z"/><path id="4qafd" d="M151.12 71.26l-10.1-10.05a1.86 1.86 0 0 0-2.6 0l-1.3 1.3-1.31 1.3 1.3 1.3 10.1 10.04c.72.71 1.9.71 2.6 0l1.31-1.3 1.3-1.29z"/><path id="4qafe" d="M158.34 33.8l-13.8 3.67a1.84 1.84 0 0 0-1.3 2.25l.48 1.77.48 1.77 1.78-.47 13.8-3.68a1.84 1.84 0 0 0 1.3-2.25l-.48-1.77-.48-1.77z"/><path id="4qaff" d="M153.86 24.9L141.49 32a1.83 1.83 0 0 0-.67 2.5l.92 1.6.92 1.58 1.6-.92 12.36-7.1c.88-.5 1.18-1.63.68-2.5l-.92-1.6-.92-1.58z"/><path id="4qafg" d="M147.2 17.46L137.1 27.5a1.83 1.83 0 0 0 0 2.59l1.31 1.3 1.3 1.29 1.3-1.3 10.1-10.05c.72-.7.72-1.87 0-2.59l-1.3-1.3-1.3-1.29z"/><path id="4qafh" d="M190.03 38.05h10.29l-.59 2.75h-6.53l-.59 2.75h6.17l-.6 2.75h-6.16l-.58 2.75h6.68l-.59 2.75H187.1z"/><path id="4qafi" d="M211.57 42.18c.1-1.41-.94-1.81-1.99-1.81-2.6 0-4.03 2.27-4.52 4.55-.68 3.2.8 4.54 3.1 4.54.7 0 1.42-.1 2.15-.23l.5-2.36.13-.57h-2.9l.58-2.75h6.48l-1.66 7.74c-2.1.47-4.19.76-6.22.76-1.48 0-3.48-.23-4.82-1.42-1.47-1.3-1.81-3.46-1.35-5.63a9.74 9.74 0 0 1 3.21-5.43c1.97-1.53 4.42-1.81 6.07-1.81 2.15 0 3.82.45 4.68 1.59.76 1.04.54 2.17.42 2.83z"/><path id="4qafj" d="M221.24 40.8h-4.18l.59-2.75h12.28l-.59 2.75h-4.27l-2.35 11h-3.83z"/><path id="4qafk" d="M180.51 51.8h3.19z"/><path id="4qafl" d="M183.13 38.05h-2.1L177 46.16l-.07.14v-.14l-.44-8.11H170.68l-2.94 13.75h3.28l2.35-11 .57 11h3.44l5.47-11-2.34 11h3.4l2.93-13.75z"/></defs><g><g transform="translate(-136 -16)"><g><use fill="#ffb612" xlink:href="#4qafa"/></g><g><use fill="#ffb612" xlink:href="#4qafb"/></g><g><use fill="#ffb612" xlink:href="#4qafc"/></g><g><use fill="#ffb612" xlink:href="#4qafd"/></g><g><use fill="#ffb612" xlink:href="#4qafe"/></g><g><use fill="#ffb612" xlink:href="#4qaff"/></g><g><use fill="#ffb612" xlink:href="#4qafg"/></g><g><use fill="#012396" xlink:href="#4qafh"/></g><g><use fill="#012396" xlink:href="#4qafi"/></g><g><use fill="#012396" xlink:href="#4qafj"/></g><g><use fill="#012396" xlink:href="#4qafk"/></g><g><use fill="#012396" xlink:href="#4qafl"/></g></g></g></svg>